<mxfile host="app.diagrams.net" agent="Mozilla/5.0 (Windows NT 10.0; Win64; x64) AppleWebKit/537.36 (KHTML, like Gecko) Chrome/135.0.0.0 Safari/537.36" version="26.2.12">
  <diagram id="C5RBs43oDa-KdzZeNtuy" name="Page-1">
    <mxGraphModel dx="2110" dy="2829" grid="1" gridSize="10" guides="1" tooltips="1" connect="1" arrows="1" fold="1" page="1" pageScale="1" pageWidth="827" pageHeight="1169" math="0" shadow="0">
      <root>
        <mxCell id="WIyWlLk6GJQsqaUBKTNV-0" />
        <mxCell id="WIyWlLk6GJQsqaUBKTNV-1" parent="WIyWlLk6GJQsqaUBKTNV-0" />
        <mxCell id="b1SbrXh_gUEteiQyD9fD-19" value="Mahasiswa" style="swimlane;fontStyle=1;align=center;verticalAlign=top;childLayout=stackLayout;horizontal=1;startSize=26;horizontalStack=0;resizeParent=1;resizeParentMax=0;resizeLast=0;collapsible=1;marginBottom=0;whiteSpace=wrap;html=1;" vertex="1" parent="WIyWlLk6GJQsqaUBKTNV-1">
          <mxGeometry x="310" width="160" height="140" as="geometry" />
        </mxCell>
        <mxCell id="b1SbrXh_gUEteiQyD9fD-20" value="&lt;div style=&quot;text-wrap-mode: nowrap; text-align: justify;&quot;&gt;&lt;span style=&quot;font-size: 14px; background-color: transparent; color: light-dark(rgb(0, 0, 0), rgb(255, 255, 255));&quot;&gt;+ id nim&lt;/span&gt;&lt;/div&gt;&lt;div style=&quot;text-wrap-mode: nowrap; text-align: justify;&quot;&gt;&lt;font style=&quot;font-size: 14px;&quot;&gt;+ Nama_Mahasiswa&lt;/font&gt;&lt;/div&gt;&lt;div style=&quot;text-wrap-mode: nowrap; text-align: justify;&quot;&gt;&lt;font style=&quot;font-size: 14px;&quot;&gt;+ Tempat_tanggal lahir&lt;/font&gt;&lt;/div&gt;&lt;div style=&quot;text-wrap-mode: nowrap; text-align: justify;&quot;&gt;&lt;font style=&quot;font-size: 14px;&quot;&gt;+ Jenis_Kelamin&lt;/font&gt;&lt;/div&gt;&lt;div style=&quot;text-wrap-mode: nowrap; text-align: justify;&quot;&gt;&lt;font style=&quot;font-size: 14px;&quot;&gt;+ Kode_Jurusan&lt;/font&gt;&lt;/div&gt;&lt;div style=&quot;text-wrap-mode: nowrap; text-align: justify;&quot;&gt;&lt;font style=&quot;font-size: 14px;&quot;&gt;+ Kode_Fakultas&lt;/font&gt;&lt;/div&gt;&lt;div&gt;&lt;font style=&quot;font-size: 14px;&quot;&gt;&lt;br&gt;&lt;/font&gt;&lt;/div&gt;" style="text;strokeColor=none;fillColor=none;align=left;verticalAlign=top;spacingLeft=4;spacingRight=4;overflow=hidden;rotatable=0;points=[[0,0.5],[1,0.5]];portConstraint=eastwest;whiteSpace=wrap;html=1;" vertex="1" parent="b1SbrXh_gUEteiQyD9fD-19">
          <mxGeometry y="26" width="160" height="114" as="geometry" />
        </mxCell>
        <mxCell id="b1SbrXh_gUEteiQyD9fD-23" value="KHS" style="swimlane;fontStyle=1;align=center;verticalAlign=top;childLayout=stackLayout;horizontal=1;startSize=26;horizontalStack=0;resizeParent=1;resizeParentMax=0;resizeLast=0;collapsible=1;marginBottom=0;whiteSpace=wrap;html=1;" vertex="1" parent="WIyWlLk6GJQsqaUBKTNV-1">
          <mxGeometry x="310" y="-210" width="160" height="140" as="geometry" />
        </mxCell>
        <mxCell id="b1SbrXh_gUEteiQyD9fD-24" value="&lt;div style=&quot;text-wrap-mode: nowrap; text-align: justify;&quot;&gt;&lt;span style=&quot;font-size: 14px; background-color: transparent; color: light-dark(rgb(0, 0, 0), rgb(255, 255, 255));&quot;&gt;+ id nim&lt;/span&gt;&lt;/div&gt;&lt;div style=&quot;text-wrap-mode: nowrap; text-align: justify;&quot;&gt;&lt;font style=&quot;font-size: 14px;&quot;&gt;+ Semester&lt;/font&gt;&lt;/div&gt;&lt;div style=&quot;text-wrap-mode: nowrap; text-align: justify;&quot;&gt;&lt;font style=&quot;font-size: 14px;&quot;&gt;+ Tempat_tanggal lahir&lt;/font&gt;&lt;/div&gt;&lt;div style=&quot;text-wrap-mode: nowrap; text-align: justify;&quot;&gt;&lt;font style=&quot;font-size: 14px;&quot;&gt;+ Jenis_Kelamin&lt;/font&gt;&lt;/div&gt;&lt;div style=&quot;text-wrap-mode: nowrap; text-align: justify;&quot;&gt;&lt;font style=&quot;font-size: 14px;&quot;&gt;+ Kode_Jurusan&lt;/font&gt;&lt;/div&gt;&lt;div style=&quot;text-wrap-mode: nowrap; text-align: justify;&quot;&gt;&lt;font style=&quot;font-size: 14px;&quot;&gt;+ Kode_Fakultas&lt;/font&gt;&lt;/div&gt;&lt;div&gt;&lt;font style=&quot;font-size: 14px;&quot;&gt;&lt;br&gt;&lt;/font&gt;&lt;/div&gt;" style="text;strokeColor=none;fillColor=none;align=left;verticalAlign=top;spacingLeft=4;spacingRight=4;overflow=hidden;rotatable=0;points=[[0,0.5],[1,0.5]];portConstraint=eastwest;whiteSpace=wrap;html=1;" vertex="1" parent="b1SbrXh_gUEteiQyD9fD-23">
          <mxGeometry y="26" width="160" height="114" as="geometry" />
        </mxCell>
        <mxCell id="b1SbrXh_gUEteiQyD9fD-30" value="" style="endArrow=none;html=1;rounded=0;exitX=0.5;exitY=0;exitDx=0;exitDy=0;entryX=0.501;entryY=1.018;entryDx=0;entryDy=0;entryPerimeter=0;" edge="1" parent="WIyWlLk6GJQsqaUBKTNV-1" source="b1SbrXh_gUEteiQyD9fD-19" target="b1SbrXh_gUEteiQyD9fD-24">
          <mxGeometry relative="1" as="geometry">
            <mxPoint x="420" y="220" as="sourcePoint" />
            <mxPoint x="390" y="-30" as="targetPoint" />
          </mxGeometry>
        </mxCell>
        <mxCell id="b1SbrXh_gUEteiQyD9fD-33" value="KHS" style="swimlane;fontStyle=1;align=center;verticalAlign=top;childLayout=stackLayout;horizontal=1;startSize=26;horizontalStack=0;resizeParent=1;resizeParentMax=0;resizeLast=0;collapsible=1;marginBottom=0;whiteSpace=wrap;html=1;" vertex="1" parent="WIyWlLk6GJQsqaUBKTNV-1">
          <mxGeometry x="550" y="-210" width="160" height="140" as="geometry" />
        </mxCell>
        <mxCell id="b1SbrXh_gUEteiQyD9fD-34" value="&lt;div style=&quot;text-wrap-mode: nowrap; text-align: justify;&quot;&gt;&lt;span style=&quot;font-size: 14px; background-color: transparent; color: light-dark(rgb(0, 0, 0), rgb(255, 255, 255));&quot;&gt;+ id nim&lt;/span&gt;&lt;/div&gt;&lt;div style=&quot;text-wrap-mode: nowrap; text-align: justify;&quot;&gt;&lt;font style=&quot;font-size: 14px;&quot;&gt;+ Semester&lt;/font&gt;&lt;/div&gt;&lt;div style=&quot;text-wrap-mode: nowrap; text-align: justify;&quot;&gt;&lt;font style=&quot;font-size: 14px;&quot;&gt;+ Tempat_tanggal lahir&lt;/font&gt;&lt;/div&gt;&lt;div style=&quot;text-wrap-mode: nowrap; text-align: justify;&quot;&gt;&lt;font style=&quot;font-size: 14px;&quot;&gt;+ Jenis_Kelamin&lt;/font&gt;&lt;/div&gt;&lt;div style=&quot;text-wrap-mode: nowrap; text-align: justify;&quot;&gt;&lt;font style=&quot;font-size: 14px;&quot;&gt;+ Kode_Jurusan&lt;/font&gt;&lt;/div&gt;&lt;div style=&quot;text-wrap-mode: nowrap; text-align: justify;&quot;&gt;&lt;font style=&quot;font-size: 14px;&quot;&gt;+ Kode_Fakultas&lt;/font&gt;&lt;/div&gt;&lt;div&gt;&lt;font style=&quot;font-size: 14px;&quot;&gt;&lt;br&gt;&lt;/font&gt;&lt;/div&gt;" style="text;strokeColor=none;fillColor=none;align=left;verticalAlign=top;spacingLeft=4;spacingRight=4;overflow=hidden;rotatable=0;points=[[0,0.5],[1,0.5]];portConstraint=eastwest;whiteSpace=wrap;html=1;" vertex="1" parent="b1SbrXh_gUEteiQyD9fD-33">
          <mxGeometry y="26" width="160" height="114" as="geometry" />
        </mxCell>
        <mxCell id="b1SbrXh_gUEteiQyD9fD-36" value="" style="endArrow=none;html=1;rounded=0;exitX=0;exitY=0.5;exitDx=0;exitDy=0;entryX=1;entryY=0.5;entryDx=0;entryDy=0;" edge="1" parent="WIyWlLk6GJQsqaUBKTNV-1" source="b1SbrXh_gUEteiQyD9fD-34" target="b1SbrXh_gUEteiQyD9fD-24">
          <mxGeometry relative="1" as="geometry">
            <mxPoint x="400" y="10" as="sourcePoint" />
            <mxPoint x="400" y="-58" as="targetPoint" />
          </mxGeometry>
        </mxCell>
        <mxCell id="b1SbrXh_gUEteiQyD9fD-40" value="KHS" style="swimlane;fontStyle=1;align=center;verticalAlign=top;childLayout=stackLayout;horizontal=1;startSize=26;horizontalStack=0;resizeParent=1;resizeParentMax=0;resizeLast=0;collapsible=1;marginBottom=0;whiteSpace=wrap;html=1;" vertex="1" parent="WIyWlLk6GJQsqaUBKTNV-1">
          <mxGeometry x="90" y="-210" width="160" height="140" as="geometry" />
        </mxCell>
        <mxCell id="b1SbrXh_gUEteiQyD9fD-41" value="&lt;div style=&quot;text-wrap-mode: nowrap; text-align: justify;&quot;&gt;&lt;span style=&quot;font-size: 14px; background-color: transparent; color: light-dark(rgb(0, 0, 0), rgb(255, 255, 255));&quot;&gt;+ id nim&lt;/span&gt;&lt;/div&gt;&lt;div style=&quot;text-wrap-mode: nowrap; text-align: justify;&quot;&gt;&lt;font style=&quot;font-size: 14px;&quot;&gt;+ Semester&lt;/font&gt;&lt;/div&gt;&lt;div style=&quot;text-wrap-mode: nowrap; text-align: justify;&quot;&gt;&lt;font style=&quot;font-size: 14px;&quot;&gt;+ Tempat_tanggal lahir&lt;/font&gt;&lt;/div&gt;&lt;div style=&quot;text-wrap-mode: nowrap; text-align: justify;&quot;&gt;&lt;font style=&quot;font-size: 14px;&quot;&gt;+ Jenis_Kelamin&lt;/font&gt;&lt;/div&gt;&lt;div style=&quot;text-wrap-mode: nowrap; text-align: justify;&quot;&gt;&lt;font style=&quot;font-size: 14px;&quot;&gt;+ Kode_Jurusan&lt;/font&gt;&lt;/div&gt;&lt;div style=&quot;text-wrap-mode: nowrap; text-align: justify;&quot;&gt;&lt;font style=&quot;font-size: 14px;&quot;&gt;+ Kode_Fakultas&lt;/font&gt;&lt;/div&gt;&lt;div&gt;&lt;font style=&quot;font-size: 14px;&quot;&gt;&lt;br&gt;&lt;/font&gt;&lt;/div&gt;" style="text;strokeColor=none;fillColor=none;align=left;verticalAlign=top;spacingLeft=4;spacingRight=4;overflow=hidden;rotatable=0;points=[[0,0.5],[1,0.5]];portConstraint=eastwest;whiteSpace=wrap;html=1;" vertex="1" parent="b1SbrXh_gUEteiQyD9fD-40">
          <mxGeometry y="26" width="160" height="114" as="geometry" />
        </mxCell>
        <mxCell id="b1SbrXh_gUEteiQyD9fD-42" value="" style="endArrow=none;html=1;rounded=0;exitX=-0.025;exitY=0.33;exitDx=0;exitDy=0;entryX=0.433;entryY=1.05;entryDx=0;entryDy=0;exitPerimeter=0;entryPerimeter=0;" edge="1" parent="WIyWlLk6GJQsqaUBKTNV-1" source="b1SbrXh_gUEteiQyD9fD-20" target="b1SbrXh_gUEteiQyD9fD-41">
          <mxGeometry relative="1" as="geometry">
            <mxPoint x="560" y="-117" as="sourcePoint" />
            <mxPoint x="480" y="-117" as="targetPoint" />
            <Array as="points">
              <mxPoint x="159" y="64" />
            </Array>
          </mxGeometry>
        </mxCell>
        <mxCell id="b1SbrXh_gUEteiQyD9fD-45" value="Mahasiswa" style="swimlane;fontStyle=1;align=center;verticalAlign=top;childLayout=stackLayout;horizontal=1;startSize=26;horizontalStack=0;resizeParent=1;resizeParentMax=0;resizeLast=0;collapsible=1;marginBottom=0;whiteSpace=wrap;html=1;" vertex="1" parent="WIyWlLk6GJQsqaUBKTNV-1">
          <mxGeometry x="-50" y="30" width="160" height="140" as="geometry" />
        </mxCell>
        <mxCell id="b1SbrXh_gUEteiQyD9fD-46" value="&lt;div style=&quot;text-wrap-mode: nowrap; text-align: justify;&quot;&gt;&lt;span style=&quot;font-size: 14px; background-color: transparent; color: light-dark(rgb(0, 0, 0), rgb(255, 255, 255));&quot;&gt;+ id nim&lt;/span&gt;&lt;/div&gt;&lt;div style=&quot;text-wrap-mode: nowrap; text-align: justify;&quot;&gt;&lt;font style=&quot;font-size: 14px;&quot;&gt;+ Nama_Mahasiswa&lt;/font&gt;&lt;/div&gt;&lt;div style=&quot;text-wrap-mode: nowrap; text-align: justify;&quot;&gt;&lt;font style=&quot;font-size: 14px;&quot;&gt;+ Tempat_tanggal lahir&lt;/font&gt;&lt;/div&gt;&lt;div style=&quot;text-wrap-mode: nowrap; text-align: justify;&quot;&gt;&lt;font style=&quot;font-size: 14px;&quot;&gt;+ Jenis_Kelamin&lt;/font&gt;&lt;/div&gt;&lt;div style=&quot;text-wrap-mode: nowrap; text-align: justify;&quot;&gt;&lt;font style=&quot;font-size: 14px;&quot;&gt;+ Kode_Jurusan&lt;/font&gt;&lt;/div&gt;&lt;div style=&quot;text-wrap-mode: nowrap; text-align: justify;&quot;&gt;&lt;font style=&quot;font-size: 14px;&quot;&gt;+ Kode_Fakultas&lt;/font&gt;&lt;/div&gt;&lt;div&gt;&lt;font style=&quot;font-size: 14px;&quot;&gt;&lt;br&gt;&lt;/font&gt;&lt;/div&gt;" style="text;strokeColor=none;fillColor=none;align=left;verticalAlign=top;spacingLeft=4;spacingRight=4;overflow=hidden;rotatable=0;points=[[0,0.5],[1,0.5]];portConstraint=eastwest;whiteSpace=wrap;html=1;" vertex="1" parent="b1SbrXh_gUEteiQyD9fD-45">
          <mxGeometry y="26" width="160" height="114" as="geometry" />
        </mxCell>
        <mxCell id="b1SbrXh_gUEteiQyD9fD-47" value="" style="endArrow=none;html=1;rounded=0;exitX=-0.017;exitY=0.763;exitDx=0;exitDy=0;entryX=1;entryY=0.5;entryDx=0;entryDy=0;exitPerimeter=0;" edge="1" parent="WIyWlLk6GJQsqaUBKTNV-1" source="b1SbrXh_gUEteiQyD9fD-20" target="b1SbrXh_gUEteiQyD9fD-46">
          <mxGeometry relative="1" as="geometry">
            <mxPoint x="400" y="10" as="sourcePoint" />
            <mxPoint x="400" y="-58" as="targetPoint" />
          </mxGeometry>
        </mxCell>
        <mxCell id="b1SbrXh_gUEteiQyD9fD-48" value="Mahasiswa" style="swimlane;fontStyle=1;align=center;verticalAlign=top;childLayout=stackLayout;horizontal=1;startSize=26;horizontalStack=0;resizeParent=1;resizeParentMax=0;resizeLast=0;collapsible=1;marginBottom=0;whiteSpace=wrap;html=1;" vertex="1" parent="WIyWlLk6GJQsqaUBKTNV-1">
          <mxGeometry x="-50" y="200" width="160" height="140" as="geometry" />
        </mxCell>
        <mxCell id="b1SbrXh_gUEteiQyD9fD-49" value="&lt;div style=&quot;text-wrap-mode: nowrap; text-align: justify;&quot;&gt;&lt;span style=&quot;font-size: 14px; background-color: transparent; color: light-dark(rgb(0, 0, 0), rgb(255, 255, 255));&quot;&gt;+ id nim&lt;/span&gt;&lt;/div&gt;&lt;div style=&quot;text-wrap-mode: nowrap; text-align: justify;&quot;&gt;&lt;font style=&quot;font-size: 14px;&quot;&gt;+ Nama_Mahasiswa&lt;/font&gt;&lt;/div&gt;&lt;div style=&quot;text-wrap-mode: nowrap; text-align: justify;&quot;&gt;&lt;font style=&quot;font-size: 14px;&quot;&gt;+ Tempat_tanggal lahir&lt;/font&gt;&lt;/div&gt;&lt;div style=&quot;text-wrap-mode: nowrap; text-align: justify;&quot;&gt;&lt;font style=&quot;font-size: 14px;&quot;&gt;+ Jenis_Kelamin&lt;/font&gt;&lt;/div&gt;&lt;div style=&quot;text-wrap-mode: nowrap; text-align: justify;&quot;&gt;&lt;font style=&quot;font-size: 14px;&quot;&gt;+ Kode_Jurusan&lt;/font&gt;&lt;/div&gt;&lt;div style=&quot;text-wrap-mode: nowrap; text-align: justify;&quot;&gt;&lt;font style=&quot;font-size: 14px;&quot;&gt;+ Kode_Fakultas&lt;/font&gt;&lt;/div&gt;&lt;div&gt;&lt;font style=&quot;font-size: 14px;&quot;&gt;&lt;br&gt;&lt;/font&gt;&lt;/div&gt;" style="text;strokeColor=none;fillColor=none;align=left;verticalAlign=top;spacingLeft=4;spacingRight=4;overflow=hidden;rotatable=0;points=[[0,0.5],[1,0.5]];portConstraint=eastwest;whiteSpace=wrap;html=1;" vertex="1" parent="b1SbrXh_gUEteiQyD9fD-48">
          <mxGeometry y="26" width="160" height="114" as="geometry" />
        </mxCell>
        <mxCell id="b1SbrXh_gUEteiQyD9fD-50" value="" style="endArrow=none;html=1;rounded=0;entryX=1;entryY=0.5;entryDx=0;entryDy=0;" edge="1" parent="WIyWlLk6GJQsqaUBKTNV-1" target="b1SbrXh_gUEteiQyD9fD-49">
          <mxGeometry relative="1" as="geometry">
            <mxPoint x="317" y="140" as="sourcePoint" />
            <mxPoint x="120" y="123" as="targetPoint" />
            <Array as="points">
              <mxPoint x="317" y="283" />
            </Array>
          </mxGeometry>
        </mxCell>
        <mxCell id="b1SbrXh_gUEteiQyD9fD-51" value="Mata Kuliah" style="swimlane;fontStyle=1;align=center;verticalAlign=top;childLayout=stackLayout;horizontal=1;startSize=26;horizontalStack=0;resizeParent=1;resizeParentMax=0;resizeLast=0;collapsible=1;marginBottom=0;whiteSpace=wrap;html=1;" vertex="1" parent="WIyWlLk6GJQsqaUBKTNV-1">
          <mxGeometry x="560" width="160" height="140" as="geometry" />
        </mxCell>
        <mxCell id="b1SbrXh_gUEteiQyD9fD-52" value="&lt;div style=&quot;text-wrap-mode: nowrap; text-align: justify;&quot;&gt;&lt;span style=&quot;font-size: 14px; background-color: transparent; color: light-dark(rgb(0, 0, 0), rgb(255, 255, 255));&quot;&gt;+ id nim&lt;/span&gt;&lt;/div&gt;&lt;div style=&quot;text-wrap-mode: nowrap; text-align: justify;&quot;&gt;&lt;font style=&quot;font-size: 14px;&quot;&gt;+ Semester&lt;/font&gt;&lt;/div&gt;&lt;div style=&quot;text-wrap-mode: nowrap; text-align: justify;&quot;&gt;&lt;font style=&quot;font-size: 14px;&quot;&gt;+ Tempat_tanggal lahir&lt;/font&gt;&lt;/div&gt;&lt;div style=&quot;text-wrap-mode: nowrap; text-align: justify;&quot;&gt;&lt;font style=&quot;font-size: 14px;&quot;&gt;+ Jenis_Kelamin&lt;/font&gt;&lt;/div&gt;&lt;div style=&quot;text-wrap-mode: nowrap; text-align: justify;&quot;&gt;&lt;font style=&quot;font-size: 14px;&quot;&gt;+ Kode_Jurusan&lt;/font&gt;&lt;/div&gt;&lt;div style=&quot;text-wrap-mode: nowrap; text-align: justify;&quot;&gt;&lt;font style=&quot;font-size: 14px;&quot;&gt;+ Kode_Fakultas&lt;/font&gt;&lt;/div&gt;&lt;div&gt;&lt;font style=&quot;font-size: 14px;&quot;&gt;&lt;br&gt;&lt;/font&gt;&lt;/div&gt;" style="text;strokeColor=none;fillColor=none;align=left;verticalAlign=top;spacingLeft=4;spacingRight=4;overflow=hidden;rotatable=0;points=[[0,0.5],[1,0.5]];portConstraint=eastwest;whiteSpace=wrap;html=1;" vertex="1" parent="b1SbrXh_gUEteiQyD9fD-51">
          <mxGeometry y="26" width="160" height="114" as="geometry" />
        </mxCell>
        <mxCell id="b1SbrXh_gUEteiQyD9fD-53" value="Jadwal Kuliah" style="swimlane;fontStyle=1;align=center;verticalAlign=top;childLayout=stackLayout;horizontal=1;startSize=26;horizontalStack=0;resizeParent=1;resizeParentMax=0;resizeLast=0;collapsible=1;marginBottom=0;whiteSpace=wrap;html=1;" vertex="1" parent="WIyWlLk6GJQsqaUBKTNV-1">
          <mxGeometry x="560" y="170" width="160" height="140" as="geometry" />
        </mxCell>
        <mxCell id="b1SbrXh_gUEteiQyD9fD-54" value="&lt;div style=&quot;text-wrap-mode: nowrap; text-align: justify;&quot;&gt;&lt;span style=&quot;font-size: 14px; background-color: transparent; color: light-dark(rgb(0, 0, 0), rgb(255, 255, 255));&quot;&gt;+ id nim&lt;/span&gt;&lt;/div&gt;&lt;div style=&quot;text-wrap-mode: nowrap; text-align: justify;&quot;&gt;&lt;font style=&quot;font-size: 14px;&quot;&gt;+ Semester&lt;/font&gt;&lt;/div&gt;&lt;div style=&quot;text-wrap-mode: nowrap; text-align: justify;&quot;&gt;&lt;font style=&quot;font-size: 14px;&quot;&gt;+ Tempat_tanggal lahir&lt;/font&gt;&lt;/div&gt;&lt;div style=&quot;text-wrap-mode: nowrap; text-align: justify;&quot;&gt;&lt;font style=&quot;font-size: 14px;&quot;&gt;+ Jenis_Kelamin&lt;/font&gt;&lt;/div&gt;&lt;div style=&quot;text-wrap-mode: nowrap; text-align: justify;&quot;&gt;&lt;font style=&quot;font-size: 14px;&quot;&gt;+ Kode_Jurusan&lt;/font&gt;&lt;/div&gt;&lt;div style=&quot;text-wrap-mode: nowrap; text-align: justify;&quot;&gt;&lt;font style=&quot;font-size: 14px;&quot;&gt;+ Kode_Fakultas&lt;/font&gt;&lt;/div&gt;&lt;div&gt;&lt;font style=&quot;font-size: 14px;&quot;&gt;&lt;br&gt;&lt;/font&gt;&lt;/div&gt;" style="text;strokeColor=none;fillColor=none;align=left;verticalAlign=top;spacingLeft=4;spacingRight=4;overflow=hidden;rotatable=0;points=[[0,0.5],[1,0.5]];portConstraint=eastwest;whiteSpace=wrap;html=1;" vertex="1" parent="b1SbrXh_gUEteiQyD9fD-53">
          <mxGeometry y="26" width="160" height="114" as="geometry" />
        </mxCell>
        <mxCell id="b1SbrXh_gUEteiQyD9fD-55" value="" style="endArrow=none;html=1;rounded=0;exitX=0;exitY=0.5;exitDx=0;exitDy=0;entryX=0;entryY=0.5;entryDx=0;entryDy=0;" edge="1" parent="WIyWlLk6GJQsqaUBKTNV-1" target="b1SbrXh_gUEteiQyD9fD-54">
          <mxGeometry relative="1" as="geometry">
            <mxPoint x="560" y="80" as="sourcePoint" />
            <mxPoint x="480" y="80" as="targetPoint" />
            <Array as="points">
              <mxPoint x="510" y="80" />
              <mxPoint x="510" y="253" />
            </Array>
          </mxGeometry>
        </mxCell>
        <mxCell id="b1SbrXh_gUEteiQyD9fD-57" value="Jadwal Kuliah" style="swimlane;fontStyle=1;align=center;verticalAlign=top;childLayout=stackLayout;horizontal=1;startSize=26;horizontalStack=0;resizeParent=1;resizeParentMax=0;resizeLast=0;collapsible=1;marginBottom=0;whiteSpace=wrap;html=1;" vertex="1" parent="WIyWlLk6GJQsqaUBKTNV-1">
          <mxGeometry x="850" y="290" width="160" height="140" as="geometry" />
        </mxCell>
        <mxCell id="b1SbrXh_gUEteiQyD9fD-58" value="&lt;div style=&quot;text-wrap-mode: nowrap; text-align: justify;&quot;&gt;&lt;span style=&quot;font-size: 14px; background-color: transparent; color: light-dark(rgb(0, 0, 0), rgb(255, 255, 255));&quot;&gt;+ id nim&lt;/span&gt;&lt;/div&gt;&lt;div style=&quot;text-wrap-mode: nowrap; text-align: justify;&quot;&gt;&lt;font style=&quot;font-size: 14px;&quot;&gt;+ Semester&lt;/font&gt;&lt;/div&gt;&lt;div style=&quot;text-wrap-mode: nowrap; text-align: justify;&quot;&gt;&lt;font style=&quot;font-size: 14px;&quot;&gt;+ Tempat_tanggal lahir&lt;/font&gt;&lt;/div&gt;&lt;div style=&quot;text-wrap-mode: nowrap; text-align: justify;&quot;&gt;&lt;font style=&quot;font-size: 14px;&quot;&gt;+ Jenis_Kelamin&lt;/font&gt;&lt;/div&gt;&lt;div style=&quot;text-wrap-mode: nowrap; text-align: justify;&quot;&gt;&lt;font style=&quot;font-size: 14px;&quot;&gt;+ Kode_Jurusan&lt;/font&gt;&lt;/div&gt;&lt;div style=&quot;text-wrap-mode: nowrap; text-align: justify;&quot;&gt;&lt;font style=&quot;font-size: 14px;&quot;&gt;+ Kode_Fakultas&lt;/font&gt;&lt;/div&gt;&lt;div&gt;&lt;font style=&quot;font-size: 14px;&quot;&gt;&lt;br&gt;&lt;/font&gt;&lt;/div&gt;" style="text;strokeColor=none;fillColor=none;align=left;verticalAlign=top;spacingLeft=4;spacingRight=4;overflow=hidden;rotatable=0;points=[[0,0.5],[1,0.5]];portConstraint=eastwest;whiteSpace=wrap;html=1;" vertex="1" parent="b1SbrXh_gUEteiQyD9fD-57">
          <mxGeometry y="26" width="160" height="114" as="geometry" />
        </mxCell>
        <mxCell id="b1SbrXh_gUEteiQyD9fD-59" value="Jadwal Kuliah" style="swimlane;fontStyle=1;align=center;verticalAlign=top;childLayout=stackLayout;horizontal=1;startSize=26;horizontalStack=0;resizeParent=1;resizeParentMax=0;resizeLast=0;collapsible=1;marginBottom=0;whiteSpace=wrap;html=1;" vertex="1" parent="WIyWlLk6GJQsqaUBKTNV-1">
          <mxGeometry x="860" width="160" height="140" as="geometry" />
        </mxCell>
        <mxCell id="b1SbrXh_gUEteiQyD9fD-60" value="&lt;div style=&quot;text-wrap-mode: nowrap; text-align: justify;&quot;&gt;&lt;span style=&quot;font-size: 14px; background-color: transparent; color: light-dark(rgb(0, 0, 0), rgb(255, 255, 255));&quot;&gt;+ id nim&lt;/span&gt;&lt;/div&gt;&lt;div style=&quot;text-wrap-mode: nowrap; text-align: justify;&quot;&gt;&lt;font style=&quot;font-size: 14px;&quot;&gt;+ Semester&lt;/font&gt;&lt;/div&gt;&lt;div style=&quot;text-wrap-mode: nowrap; text-align: justify;&quot;&gt;&lt;font style=&quot;font-size: 14px;&quot;&gt;+ Tempat_tanggal lahir&lt;/font&gt;&lt;/div&gt;&lt;div style=&quot;text-wrap-mode: nowrap; text-align: justify;&quot;&gt;&lt;font style=&quot;font-size: 14px;&quot;&gt;+ Jenis_Kelamin&lt;/font&gt;&lt;/div&gt;&lt;div style=&quot;text-wrap-mode: nowrap; text-align: justify;&quot;&gt;&lt;font style=&quot;font-size: 14px;&quot;&gt;+ Kode_Jurusan&lt;/font&gt;&lt;/div&gt;&lt;div style=&quot;text-wrap-mode: nowrap; text-align: justify;&quot;&gt;&lt;font style=&quot;font-size: 14px;&quot;&gt;+ Kode_Fakultas&lt;/font&gt;&lt;/div&gt;&lt;div&gt;&lt;font style=&quot;font-size: 14px;&quot;&gt;&lt;br&gt;&lt;/font&gt;&lt;/div&gt;" style="text;strokeColor=none;fillColor=none;align=left;verticalAlign=top;spacingLeft=4;spacingRight=4;overflow=hidden;rotatable=0;points=[[0,0.5],[1,0.5]];portConstraint=eastwest;whiteSpace=wrap;html=1;" vertex="1" parent="b1SbrXh_gUEteiQyD9fD-59">
          <mxGeometry y="26" width="160" height="114" as="geometry" />
        </mxCell>
        <mxCell id="b1SbrXh_gUEteiQyD9fD-61" value="" style="endArrow=none;html=1;rounded=0;exitX=0;exitY=0.5;exitDx=0;exitDy=0;entryX=1;entryY=0.5;entryDx=0;entryDy=0;" edge="1" parent="WIyWlLk6GJQsqaUBKTNV-1" source="b1SbrXh_gUEteiQyD9fD-60" target="b1SbrXh_gUEteiQyD9fD-34">
          <mxGeometry relative="1" as="geometry">
            <mxPoint x="790" y="80" as="sourcePoint" />
            <mxPoint x="710" y="80" as="targetPoint" />
            <Array as="points">
              <mxPoint x="790" y="80" />
              <mxPoint x="790" y="-127" />
            </Array>
          </mxGeometry>
        </mxCell>
        <mxCell id="b1SbrXh_gUEteiQyD9fD-65" value="" style="endArrow=none;html=1;rounded=0;exitX=-0.002;exitY=0.826;exitDx=0;exitDy=0;entryX=1;entryY=0.5;entryDx=0;entryDy=0;exitPerimeter=0;" edge="1" parent="WIyWlLk6GJQsqaUBKTNV-1" source="b1SbrXh_gUEteiQyD9fD-58" target="b1SbrXh_gUEteiQyD9fD-20">
          <mxGeometry relative="1" as="geometry">
            <mxPoint x="850" y="410" as="sourcePoint" />
            <mxPoint x="770" y="410" as="targetPoint" />
            <Array as="points">
              <mxPoint x="500" y="410" />
              <mxPoint x="500" y="83" />
            </Array>
          </mxGeometry>
        </mxCell>
        <mxCell id="b1SbrXh_gUEteiQyD9fD-66" value="" style="endArrow=open;html=1;endSize=12;startArrow=diamondThin;startSize=14;startFill=0;edgeStyle=orthogonalEdgeStyle;rounded=0;exitX=0.019;exitY=0.778;exitDx=0;exitDy=0;exitPerimeter=0;entryX=0;entryY=0.5;entryDx=0;entryDy=0;" edge="1" parent="WIyWlLk6GJQsqaUBKTNV-1" source="b1SbrXh_gUEteiQyD9fD-60" target="b1SbrXh_gUEteiQyD9fD-58">
          <mxGeometry relative="1" as="geometry">
            <mxPoint x="800" y="170" as="sourcePoint" />
            <mxPoint x="960" y="170" as="targetPoint" />
          </mxGeometry>
        </mxCell>
        <mxCell id="b1SbrXh_gUEteiQyD9fD-67" value="0..n" style="edgeLabel;resizable=0;html=1;align=left;verticalAlign=top;" connectable="0" vertex="1" parent="b1SbrXh_gUEteiQyD9fD-66">
          <mxGeometry x="-1" relative="1" as="geometry" />
        </mxCell>
        <mxCell id="b1SbrXh_gUEteiQyD9fD-68" value="1" style="edgeLabel;resizable=0;html=1;align=right;verticalAlign=top;" connectable="0" vertex="1" parent="b1SbrXh_gUEteiQyD9fD-66">
          <mxGeometry x="1" relative="1" as="geometry" />
        </mxCell>
      </root>
    </mxGraphModel>
  </diagram>
</mxfile>
